# xmcd CD database file
#
# Track frame offsets:
#	150
#	79013
#	136278
#	209286
#	279253
#
# Disc length: 4191 seconds
#
# Revision: 0
# Processed by: cddbd v1.5.2PL0 Copyright (c) Steve Scherf et al.
# Submitted via: CDex 1.70beta2
#
DISCID=3d105d05
DTITLE=Robert Hurst - Unrehurst Volume 2
DYEAR=2010
DGENRE=Jazz
TTITLE0=I Love You
TTITLE1=Truth Revealed W/Intro
TTITLE2=Bob's 5/4 Tune
TTITLE3=Monk's Dream
TTITLE4=Bob's Blues
EXTD=YEAR: 2010
EXTT0=
EXTT1=
EXTT2=
EXTT3=
EXTT4=
PLAYORDER=
